<?xml version="1.0" encoding="UTF-8" standalone="no"?>
<!-- Created with Inkscape (http://www.inkscape.org/) -->

<svg
   width="210mm"
   height="297mm"
   viewBox="0 0 210 297"
   version="1.1"
   id="svg1"
   xml:space="preserve"
   inkscape:version="1.3.1 (91b66b0783, 2023-11-16)"
   sodipodi:docname="splot.svg"
   xmlns:inkscape="http://www.inkscape.org/namespaces/inkscape"
   xmlns:sodipodi="http://sodipodi.sourceforge.net/DTD/sodipodi-0.dtd"
   xmlns="http://www.w3.org/2000/svg"
   xmlns:svg="http://www.w3.org/2000/svg"><sodipodi:namedview
     id="namedview1"
     pagecolor="#ffffff"
     bordercolor="#000000"
     borderopacity="0.25"
     inkscape:showpageshadow="2"
     inkscape:pageopacity="0.0"
     inkscape:pagecheckerboard="0"
     inkscape:deskcolor="#d1d1d1"
     inkscape:document-units="mm"
     inkscape:zoom="1.0242632"
     inkscape:cx="553.56864"
     inkscape:cy="561.86729"
     inkscape:window-width="1920"
     inkscape:window-height="1009"
     inkscape:window-x="-8"
     inkscape:window-y="-8"
     inkscape:window-maximized="1"
     inkscape:current-layer="layer1" /><defs
     id="defs1" /><g
     inkscape:label="Layer 1"
     inkscape:groupmode="layer"
     id="layer1"><path
       style="fill:#000000"
       d="m 118.45459,99.770026 c -2.38344,-0.47594 -13.02802,-0.88052 -27.578073,-1.04818 -3.371286,-0.0388 -4.547774,-0.11894 -3.571875,-0.24315 0.827881,-0.10538 -0.420591,-0.1518 -2.896077,-0.10768 -2.702013,0.0481 -4.206293,-0.0142 -3.96875,-0.16448 0.210394,-0.13311 1.870816,-0.25863 3.689827,-0.27893 5.892988,-0.0658 7.738502,-0.40184 2.778125,-0.5059 -2.328334,-0.0488 -4.441693,-0.0879 -4.696355,-0.0868 -0.254661,10e-4 -0.46302,-0.0888 -0.46302,-0.19984 0,-0.11103 -0.327422,-0.25147 -0.727605,-0.3121 -0.400182,-0.0606 0.433256,-0.12806 1.852084,-0.14986 1.418828,-0.0218 2.579687,-0.14519 2.579687,-0.2742 0,-0.36173 -1.69048,-0.53157 -1.938372,-0.19474 -0.143135,0.19449 -0.181664,0.16002 -0.111627,-0.0999 0.07561,-0.28057 0.604895,-0.4376 1.806081,-0.53585 l 1.699127,-0.13898 -1.6486,-0.35747 c -0.906729,-0.19662 -1.587526,-0.4563 -1.512881,-0.57708 0.07465,-0.12078 0.3105,-0.15253 0.52412,-0.0705 0.213621,0.082 0.388402,0.0311 0.388402,-0.11299 0,-0.38294 -0.966883,-0.58062 -2.859886,-0.58472 -1.044637,-0.002 -1.608072,-0.10262 -1.505739,-0.2682 0.08994,-0.14552 1.257823,-0.27532 2.595303,-0.28844 3.034727,-0.0298 2.098624,-0.3943 -1.828604,-0.71207 l -2.618782,-0.21189 3.52479,-0.21259 c 3.454749,-0.20835 4.41183,-0.42914 2.125504,-0.49033 -0.633808,-0.017 -0.944018,-0.0779 -0.689357,-0.13549 0.254662,-0.0576 0.463021,-0.2202 0.463021,-0.36143 0,-0.14123 0.148828,-0.23746 0.330729,-0.21384 0.181901,0.0236 0.866511,0.0186 1.521355,-0.0111 1.604442,-0.0729 0.472119,-0.46603 -2.248959,-0.78083 l -1.852083,-0.21426 1.971146,-0.0359 c 1.843057,-0.0336 2.274036,-0.32591 0.939271,-0.63709 -0.418385,-0.0975 -0.350045,-0.16505 0.326434,-0.32248 1.095471,-0.25494 0.85806,-0.65615 -0.408195,-0.68983 l -0.976573,-0.026 1.190625,-0.34493 1.190625,-0.34492 -1.852083,-0.0737 c -1.623909,-0.0646 -1.689102,-0.0851 -0.529167,-0.16608 1.928451,-0.13473 2.282139,-0.33387 1.322917,-0.74486 l -0.79375,-0.34009 0.926042,-0.15722 c 0.509322,-0.0865 1.521354,-0.26305 2.248958,-0.39237 l 1.322917,-0.23515 -1.852084,-0.0603 c -2.318769,-0.0755 -1.855089,-0.1814 1.852084,-0.42311 3.142852,-0.20492 2.998931,-0.4456 -0.529167,-0.88492 l -1.5875,-0.19768 1.404677,-0.0403 c 1.58887,-0.0456 1.674983,-0.55338 0.101062,-0.59589 -0.870873,-0.0235 -0.904979,-0.0487 -0.315114,-0.23251 0.363802,-0.11338 -1.184011,-0.16182 -3.439583,-0.10764 -2.733536,0.0657 -3.968703,0.0122 -3.704167,-0.16031 0.218281,-0.14235 2.480469,-0.269 5.027083,-0.28146 2.546615,-0.0125 4.868334,-0.12497 5.159375,-0.25004 0.329467,-0.14158 -1.068432,-0.24502 -3.704166,-0.27411 -2.328334,-0.0257 -4.411928,-0.0732 -4.630209,-0.10563 -0.218281,-0.0324 -0.922734,-0.0793 -1.565451,-0.10417 -1.469028,-0.0569 -1.323473,-0.22931 0.36465,-0.43195 1.338199,-0.16064 1.949169,-0.40205 1.046461,-0.41348 -1.045157,-0.0132 -3.398045,-0.33572 -4.057088,-0.55606 -0.474105,-0.1585 -0.136478,-0.19771 1.102574,-0.12804 0.982266,0.0552 1.785938,0.003 1.785938,-0.11529 0,-0.11864 0.26789,-0.26731 0.595312,-0.33038 0.369694,-0.0712 0.194213,-0.13831 -0.463021,-0.17706 -1.781786,-0.10507 -0.08053,-0.48164 2.315104,-0.51246 1.173043,-0.0151 2.050521,-0.13959 2.050521,-0.29095 0,-0.14552 -0.304683,-0.26459 -0.677073,-0.26459 -0.384008,0 -0.606294,-0.11452 -0.513552,-0.26458 0.08994,-0.14552 0.461178,-0.26458 0.82498,-0.26458 0.373598,0 0.590295,-0.11515 0.497937,-0.26459 -0.08994,-0.14552 -0.483917,-0.2664 -0.875511,-0.26863 -4.131449,-0.0235 0.660985,-0.75433 5.373428,-0.81942 1.550884,-0.0214 2.104461,-0.0974 1.5875,-0.21801 -0.639607,-0.14918 -0.357012,-0.24099 1.455208,-0.47276 2.045069,-0.26156 1.859171,-0.27458 -2.050521,-0.14363 -3.12434,0.10465 -4.299479,0.0616 -4.299479,-0.1574 0,-0.20323 0.797132,-0.30376 2.447396,-0.30866 2.924788,-0.009 8.223344,-0.27346 8.378472,-0.41869 0.06063,-0.0568 -1.844366,-0.11695 -4.233333,-0.13373 -2.388967,-0.0168 -4.462639,-0.0582 -4.60816,-0.092 -0.145521,-0.0338 -1.098021,-0.0983 -2.116667,-0.14341 l -1.852083,-0.0819 1.852083,-0.19009 c 1.018646,-0.10454 3.459427,-0.22632 5.423959,-0.27062 3.248049,-0.0732 3.391971,-0.0959 1.5875,-0.24978 l -1.984375,-0.16925 2.579687,-0.0477 c 1.910969,-0.0353 2.580738,0.0381 2.583739,0.28306 0.0032,0.26274 0.04694,0.26319 0.212693,0.002 0.163647,-0.25768 5.654714,-0.33263 25.462094,-0.34752 30.17413,-0.0227 32.54048,-0.005 31.90912,0.24388 -0.82112,0.32317 0.6604,0.82398 2.55105,0.86235 l 1.6412,0.0333 -1.98437,0.34695 c -1.12591,0.19686 -4.11148,0.35415 -6.90122,0.36357 -2.70426,0.009 -5.00444,0.1059 -5.1115,0.21504 -0.10706,0.10914 -0.81152,0.33391 -1.56545,0.49948 -1.24119,0.27257 -1.28324,0.30386 -0.44475,0.33094 1.0653,0.0344 4.81485,0.78303 5.02111,1.0025 0.0761,0.0809 -0.27845,0.0597 -0.78778,-0.0471 l -0.92604,-0.19419 0.70319,0.56016 c 0.49399,0.39351 1.07778,0.56016 1.96233,0.56016 0.69252,0 1.18769,0.0714 1.10037,0.15876 -0.23392,0.23393 -10.51291,0.27272 -10.51283,0.0397 4e-5,-0.10914 -0.56548,-0.17842 -1.2567,-0.15396 l -1.25678,0.0445 1.05834,0.12444 c 0.95466,0.11226 0.99354,0.14419 0.39687,0.32603 -0.38087,0.11607 0.94451,0.21276 3.12447,0.22795 2.08226,0.0145 3.72174,0.13024 3.64328,0.25719 -0.181,0.29286 1.38846,0.55625 3.33695,0.56002 0.82816,0.002 1.57932,0.12197 1.66926,0.26749 0.0899,0.14553 0.42439,0.27646 0.74322,0.29096 0.53964,0.0246 0.53399,0.041 -0.0818,0.23821 l -0.66146,0.21184 0.66146,0.0473 c 0.44903,0.0321 0.534,0.10076 0.26458,0.21384 -0.22243,0.0934 0.35903,0.30592 1.32292,0.48362 1.5472,0.28523 1.14224,0.31288 -4.03518,0.27556 -6.92776,-0.0499 -7.53821,0.20457 -1.10873,0.46226 4.21533,0.16895 7.26641,0.58823 5.01162,0.6887 -1.42268,0.0634 -1.96913,0.41132 -0.96227,0.6127 0.47578,0.0951 0.80637,0.26795 0.73465,0.384 -0.0717,0.11605 0.0692,0.22614 0.31319,0.24465 0.24398,0.0185 0.80078,0.0953 1.23734,0.17076 0.43657,0.0754 1.15094,0.15367 1.5875,0.17393 0.64955,0.0301 0.70081,0.0732 0.28215,0.23717 -0.86931,0.34042 0.036,0.64765 1.81461,0.61581 1.19005,-0.0213 1.43566,0.0291 0.94595,0.19402 -0.3638,0.12254 -1.16044,0.23467 -1.77032,0.24917 -0.60988,0.0145 -1.1844,0.1486 -1.27672,0.29798 -0.0923,0.14938 -0.30771,0.25433 -0.47864,0.23323 -0.17093,-0.0211 -1.20374,-0.009 -2.29515,0.0261 -2.73404,0.0888 -0.74405,0.46202 2.91042,0.54581 l 2.51354,0.0576 -2.24896,0.20553 c -1.23693,0.11303 -3.70747,0.23404 -5.4901,0.2689 -4.79188,0.0937 -3.93699,0.50721 1.05833,0.51192 2.58185,0.002 4.45803,0.11556 4.69635,0.28319 0.28275,0.19887 -0.76338,0.24478 -3.63802,0.15964 -2.24165,-0.0664 -4.03489,-0.0159 -4.03489,0.11369 0,0.12824 0.71437,0.24806 1.5875,0.26625 0.87312,0.0182 1.70656,0.0628 1.85208,0.0992 0.14552,0.0364 1.18732,0.0967 2.3151,0.13404 1.64929,0.0546 1.86932,0.10605 1.12448,0.26283 l -0.92604,0.19492 0.92604,0.0534 c 0.77126,0.0445 0.8376,0.0914 0.39688,0.28082 -0.36835,0.15828 0.0739,0.24486 1.45521,0.28488 l 1.98437,0.0575 -1.5875,0.22841 c -0.87312,0.12563 -3.01625,0.32635 -4.7625,0.44606 -1.74625,0.1197 -2.75828,0.2459 -2.24896,0.28045 0.50933,0.0345 1.16417,0.16824 1.45521,0.29711 0.3709,0.16423 0.17306,0.19949 -0.66146,0.11789 -0.9138,-0.0893 -1.03683,-0.062 -0.52916,0.1176 0.3638,0.12871 0.54239,0.24771 0.39687,0.26444 -0.78953,0.0908 0.7255,0.544 1.83004,0.54744 0.71547,0.002 1.23224,0.0727 1.14837,0.15654 -0.0839,0.0839 -1.85988,0.1613 -3.9467,0.17206 -2.08681,0.0108 -3.61562,0.0791 -3.39733,0.15176 0.21828,0.0727 0.4564,0.22013 0.52916,0.32761 0.0728,0.10747 0.78714,0.3136 1.5875,0.45806 l 1.45521,0.26266 -1.11617,0.0314 c -1.56504,0.0441 -1.29759,0.82338 0.28458,0.82923 0.6029,0.002 1.27477,0.12314 1.49305,0.26868 0.2734,0.1823 -0.17932,0.21568 -1.45521,0.1073 -2.46175,-0.20912 -1.78649,0.29345 0.77335,0.57557 1.65831,0.18277 1.76657,0.22672 0.94644,0.38431 -0.92325,0.1774 -0.92365,0.17809 -0.13229,0.23136 0.69256,0.0466 0.72629,0.0824 0.26458,0.28081 -0.44002,0.18909 -0.37316,0.2358 0.39688,0.2773 0.50932,0.0274 1.28323,0.1467 1.71979,0.26502 0.77133,0.20905 -3.2034,0.16162 -10.58333,-0.12628 -3.94294,-0.15382 -3.27131,0.0802 2.24896,0.78358 3.96747,0.50554 4.71936,0.72869 3.53897,1.0503 l -0.76085,0.20731 0.66146,0.20022 c 0.3638,0.11012 1.13771,0.23515 1.71979,0.27784 0.58208,0.0427 -0.13229,0.14385 -1.5875,0.22481 -1.45521,0.081 -3.00302,0.068 -3.43958,-0.0288 -2.28983,-0.50763 -20.97797,-1.11638 -22.75417,-0.7412 l -0.79375,0.16766 0.92604,0.1726 c 0.50933,0.0949 1.28323,0.21166 1.71979,0.25941 0.43657,0.0477 -0.42877,0.13872 -1.92297,0.20216 -1.49419,0.0634 -3.10154,0.0385 -3.57187,-0.0554 z"
       id="path1" /></g></svg>
